<?xml version="1.0" standalone="no"?><!DOCTYPE svg PUBLIC "-//W3C//DTD SVG 1.1//EN" "http://www.w3.org/Graphics/SVG/1.1/DTD/svg11.dtd"><svg t="1699497866633" class="icon" viewBox="0 0 1024 1024" version="1.1" xmlns="http://www.w3.org/2000/svg" p-id="8479" xmlns:xlink="http://www.w3.org/1999/xlink" width="1200" height="1200"><path d="M128 192a384 128 0 1 0 768 0 384 128 0 1 0-768 0Z" p-id="8480"></path><path d="M512 1024c206.72 0 416-54.976 416-160V192c0-105.024-209.28-160-416-160S96 86.976 96 192v672c0 105.024 209.28 160 416 160z m0-928c227.744 0 352 63.392 352 96s-124.256 96-352 96S160 224.608 160 192s124.256-96 352-96zM160 281.056C237.632 327.776 375.2 352 512 352s274.368-24.224 352-70.944V416c0 32.608-124.256 96-352 96S160 448.608 160 416V281.056z m0 224C237.632 551.776 375.2 576 512 576s274.368-24.224 352-70.944V640c0 32.608-124.256 96-352 96S160 672.608 160 640v-134.944z m0 224C237.632 775.776 375.2 800 512 800s274.368-24.224 352-70.944V864c0 32.608-124.256 96-352 96S160 896.608 160 864v-134.944z" p-id="8481"></path></svg>
